# xmcd CD database file
#
# Track frame offsets:
#	150
#	19500
#	38112
#	61062
#	77712
#	94937
#	119887
#	141487
#	172187
#	215887
#	234350
#	249462
#	265750
#	285175
#	317162
#	331775
#
# Disc length: 4630 seconds
#
# Revision: 0
# Processed by: cddbd v1.5PL3 Copyright (c) Steve Scherf et al.
# Submitted via: CDex 1.50
#
DISCID=e6121410
DTITLE=Various Artist - @Jazz cafe annex
DYEAR=2002
DGENRE=Jazz
TTITLE0=Fool On The Hill/The Singers Unlimited
TTITLE1=Sunny/Wes Montgomery
TTITLE2=The Red Blouse/Antonio Carlos Jobin
TTITLE3=Everything Happens To Me/Chet Baker
TTITLE4=The Sidewinder/Quincy Jones
TTITLE5=What's New/George Benson
TTITLE6=My Foolish Heart/Bill Evans
TTITLE7=Cantaloupe Island/Donald Byrd
TTITLE8=Concierto de Aranjuez/Laurindo Almeida
TTITLE9=Too Close For Comfort/Mel Torme
TTITLE10=Tea For Two/Blossom Dearie
TTITLE11=Autumn Leaves/LA 4
TTITLE12=Corcovado/Stan Getz, Joao Gilberto, Astrud Gilberto
TTITLE13=Satin Doll/Jimmy Smith
TTITLE14=Constant Rain/Sergio Mendes and Brasil 66
TTITLE15=Stardust/Clifford Brown
EXTD=YEAR: 2002
EXTT0=
EXTT1=
EXTT2=
EXTT3=
EXTT4=
EXTT5=
EXTT6=
EXTT7=
EXTT8=
EXTT9=
EXTT10=
EXTT11=
EXTT12=
EXTT13=
EXTT14=
EXTT15=
PLAYORDER=
